<?xml version="1.0" encoding="UTF-8" standalone="no"?>
<!-- Created with Inkscape (http://www.inkscape.org/) -->

<svg
   width="199mm"
   height="103mm"
   viewBox="0 0 198.99996 103"
   version="1.1"
   id="svg5"
   inkscape:version="1.3 (0e150ed6c4, 2023-07-21)"
   sodipodi:docname="t29-dhl-labels.svg"
   inkscape:export-filename="/home/sven/Analog/Hardware/the-analog-thing/Production/SN-Sticker/THAT-SerialNumber-Sticker.png"
   inkscape:export-xdpi="199.97398"
   inkscape:export-ydpi="199.97398"
   xmlns:inkscape="http://www.inkscape.org/namespaces/inkscape"
   xmlns:sodipodi="http://sodipodi.sourceforge.net/DTD/sodipodi-0.dtd"
   xmlns="http://www.w3.org/2000/svg"
   xmlns:svg="http://www.w3.org/2000/svg">
  <sodipodi:namedview
     id="namedview7"
     pagecolor="#ffffff"
     bordercolor="#999999"
     borderopacity="1"
     inkscape:pageshadow="0"
     inkscape:pageopacity="1"
     inkscape:pagecheckerboard="0"
     inkscape:document-units="mm"
     showgrid="false"
     lock-margins="true"
     fit-margin-top="5"
     fit-margin-left="5"
     fit-margin-right="5"
     fit-margin-bottom="5"
     inkscape:zoom="0.74936416"
     inkscape:cx="457.72138"
     inkscape:cy="149.46004"
     inkscape:window-width="1889"
     inkscape:window-height="1350"
     inkscape:window-x="460"
     inkscape:window-y="0"
     inkscape:window-maximized="0"
     inkscape:current-layer="layer1"
     inkscape:showpageshadow="0"
     inkscape:deskcolor="#d1d1d1" />
  <defs
     id="defs2">
    <rect
       x="-62.459854"
       y="-67.258881"
       width="237.94627"
       height="54.283485"
       id="rect8749" />
    <rect
       x="-7.4318151"
       y="42.423313"
       width="121.92117"
       height="138.37334"
       id="rect37722" />
    <rect
       x="-62.459854"
       y="-67.258881"
       width="181.08118"
       height="36.486263"
       id="rect25355" />
    <rect
       x="-62.459854"
       y="-67.258881"
       width="175.93295"
       height="54.321499"
       id="rect32180" />
    <rect
       x="-62.459854"
       y="-67.258881"
       width="218.75264"
       height="45.638332"
       id="rect3763" />
    <rect
       x="-62.459854"
       y="-67.258881"
       width="354.93985"
       height="46.073608"
       id="rect26033" />
    <rect
       x="-62.459854"
       y="-67.258881"
       width="79.500397"
       height="48.693638"
       id="rect5984" />
    <rect
       x="-62.459854"
       y="-67.258881"
       width="354.93985"
       height="46.073608"
       id="rect37490" />
    <rect
       x="-62.459854"
       y="-67.258881"
       width="175.93295"
       height="54.321499"
       id="rect5558" />
    <rect
       x="-62.459854"
       y="-67.258881"
       width="152.24422"
       height="73.899063"
       id="rect8749-9" />
    <rect
       x="-62.459854"
       y="-67.258881"
       width="249.63506"
       height="24.613928"
       id="rect20292" />
    <rect
       x="-62.459854"
       y="-67.258881"
       width="237.94627"
       height="54.283485"
       id="rect8749-7" />
    <rect
       x="-62.459854"
       y="-67.258881"
       width="237.94627"
       height="54.283485"
       id="rect8749-4" />
    <rect
       x="-62.459854"
       y="-67.258881"
       width="264.10867"
       height="37.562862"
       id="rect21922" />
    <rect
       x="-62.459854"
       y="-67.258881"
       width="237.94627"
       height="54.283485"
       id="rect4586" />
    <rect
       x="-62.459854"
       y="-67.258881"
       width="237.94627"
       height="54.283485"
       id="rect5472" />
    <rect
       x="-62.459854"
       y="-67.258881"
       width="237.94627"
       height="54.283485"
       id="rect11984" />
    <rect
       x="-62.459854"
       y="-67.258881"
       width="397.49423"
       height="53.68531"
       id="rect17020" />
    <rect
       x="-62.459854"
       y="-67.258881"
       width="249.63506"
       height="24.613928"
       id="rect17740" />
    <rect
       x="-62.459854"
       y="-67.258881"
       width="249.63506"
       height="24.613928"
       id="rect22038" />
    <rect
       x="-62.459854"
       y="-67.258881"
       width="397.49423"
       height="53.68531"
       id="rect17020-1" />
  </defs>
  <g
     inkscape:label="Ebene 1"
     inkscape:groupmode="layer"
     id="layer1"
     transform="translate(12.655515,3.6913741)">
    <text
       xml:space="preserve"
       style="font-size:3.95047px;line-height:1;font-family:Roboto;-inkscape-font-specification:Roboto;text-align:center;letter-spacing:0px;word-spacing:0px;text-anchor:middle;stroke-width:0.0987619"
       x="3.1631103"
       y="19.908697"
       id="text1976"><tspan
         sodipodi:role="line"
         style="font-style:normal;font-variant:normal;font-weight:normal;font-stretch:normal;font-family:Arial;-inkscape-font-specification:Arial;text-align:start;text-anchor:start;stroke-width:0.0987619"
         x="3.1631103"
         y="19.908697"
         id="tspan44159" /></text>
    <text
       xml:space="preserve"
       style="font-size:21.0692px;line-height:1.25;font-family:Roboto;-inkscape-font-specification:Roboto;letter-spacing:0px;word-spacing:0px;fill:#fefefe;fill-opacity:1;stroke-width:0.204254"
       x="80.026718"
       y="82.736206"
       id="serial"><tspan
         sodipodi:role="line"
         style="font-style:normal;font-variant:normal;font-weight:bold;font-stretch:normal;font-family:Courier;-inkscape-font-specification:'Courier Bold';fill:#000000;fill-opacity:1;stroke-width:0.204254"
         x="80.026718"
         y="82.736206"
         id="tspan25573">1234</tspan></text>
    <text
       xml:space="preserve"
       transform="matrix(0.26458333,0,0,0.26458333,-1.1534517,-0.5802724)"
       id="text37720"
       style="font-size:40px;line-height:1.25;font-family:Roboto;-inkscape-font-specification:Roboto;letter-spacing:0px;word-spacing:0px;white-space:pre;shape-inside:url(#rect37722);display:inline"><tspan
         x="-7.4316406"
         y="217.5777"
         id="tspan18"><tspan
           dx="0 21.757812 20.625 22.558594 21.757812 20.625 22.558594"
           id="tspan17">asdasda</tspan></tspan></text>
    <text
       xml:space="preserve"
       transform="matrix(0.50631264,0,0,0.50631264,83.666656,44.396701)"
       id="text8747"
       style="font-size:17.562px;line-height:1.1;font-family:Roboto;-inkscape-font-specification:Roboto;text-align:start;letter-spacing:0px;word-spacing:0px;white-space:pre;shape-inside:url(#rect8749);display:inline;stroke-width:0.277719"
       x="0"
       y="0"><tspan
         x="-62.458984"
         y="-51.893015"
         id="tspan20"><tspan
           style="font-family:'Futura Std';-inkscape-font-specification:'Futura Std'"
           id="tspan19">Eigentum von</tspan></tspan></text>
    <g
       id="g828"
       transform="matrix(1.5233364,0,0,1.5206986,-29.365584,-99.226058)"
       style="stroke-width:0.293437">
      <path
         style="color:#000000;display:inline;overflow:visible;visibility:visible;fill:none;fill-opacity:1;fill-rule:nonzero;stroke:#000000;stroke-width:0.293437;stroke-linecap:round;stroke-linejoin:round;stroke-miterlimit:4;stroke-dasharray:none;stroke-opacity:1;marker:none;enable-background:accumulate"
         d="M 37.797628,67.350419 26.07578,98.861509 h 7.484967 c -2.6e-4,-0.03713 -0.0027,-0.07388 -0.0027,-0.111067 0,-6.844849 4.306556,-12.682063 10.3565,-14.956392 z"
         id="path2879"
         inkscape:connector-curvature="0" />
      <path
         style="color:#000000;display:inline;overflow:visible;visibility:visible;fill:#e6e6e6;fill-opacity:1;fill-rule:nonzero;stroke:#000000;stroke-width:0.293437;stroke-linecap:round;stroke-linejoin:round;stroke-miterlimit:4;stroke-dasharray:none;stroke-opacity:1;marker:none;enable-background:accumulate"
         d="m 44.605342,85.649719 c -5.29695,1.993573 -9.064316,7.106726 -9.064316,13.100723 0,0.03722 -2.6e-4,0.07391 0,0.111067 h 4.705538 c -8.73e-4,-0.03723 0,-0.07373 0,-0.111067 0,-3.972105 2.493408,-7.362922 6.000431,-8.690471 z"
         id="path2881"
         sodipodi:nodetypes="csccscc"
         inkscape:connector-curvature="0" />
      <path
         style="color:#000000;display:inline;overflow:visible;visibility:visible;fill:#b3b3b3;fill-opacity:1;fill-rule:nonzero;stroke:#000000;stroke-width:0.293437;stroke-linecap:round;stroke-linejoin:round;stroke-miterlimit:4;stroke-dasharray:none;stroke-opacity:1;marker:none;enable-background:accumulate"
         d="m 46.916114,91.861452 c -2.777076,1.05579 -4.751577,3.741488 -4.751577,6.88899 0,0.03725 0.0022,0.07395 0.0027,0.111067 h 7.352225 l -2.603353,-7.000057 z"
         id="path2883"
         inkscape:connector-curvature="0" />
    </g>
    <text
       xml:space="preserve"
       transform="matrix(0.50631264,0,0,0.50631264,84.009626,53.119562)"
       id="text4584"
       style="font-size:32.6151px;line-height:1.1;font-family:Roboto;-inkscape-font-specification:Roboto;text-align:start;letter-spacing:0px;word-spacing:0px;white-space:pre;shape-inside:url(#rect4586);display:inline;stroke-width:0.277719"
       x="0"
       y="0"><tspan
         x="-62.458984"
         y="-38.721552"
         id="tspan22"><tspan
           style="font-weight:bold;font-family:'Futura Std';-inkscape-font-specification:'Futura Std Bold'"
           id="tspan21">technikum29</tspan></tspan></text>
    <text
       xml:space="preserve"
       transform="matrix(0.50631264,0,0,0.50631264,84.040115,69.694052)"
       id="text5470"
       style="font-size:17.562px;line-height:1.1;font-family:Roboto;-inkscape-font-specification:Roboto;text-align:start;letter-spacing:0px;word-spacing:0px;white-space:pre;shape-inside:url(#rect5472);display:inline;stroke-width:0.277719"
       x="0"
       y="0"><tspan
         x="-62.458984"
         y="-51.893015"
         id="tspan24"><tspan
           style="font-family:'Futura Std';-inkscape-font-specification:'Futura Std'"
           id="tspan23">Computermuseum</tspan></tspan></text>
    <text
       xml:space="preserve"
       transform="matrix(0.30915178,0,0,0.30915178,104.48723,83.176517)"
       id="text11982"
       style="font-size:17.562px;line-height:1.1;font-family:Roboto;-inkscape-font-specification:Roboto;text-align:start;letter-spacing:0px;word-spacing:0px;white-space:pre;shape-inside:url(#rect11984);display:inline;stroke-width:0.454834"
       x="0"
       y="0"><tspan
         x="-62.458984"
         y="-52.00058"
         id="tspan26"><tspan
           style="font-weight:bold;font-family:Inconsolata;-inkscape-font-specification:'Inconsolata Bold'"
           id="tspan25">Inventarnummer:</tspan></tspan></text>
    <g
       id="g17738"
       transform="matrix(0,-3.2478905,3.2478905,0,100.64477,58.025802)"
       style="stroke-width:0.307892">
      <rect
         style="opacity:1;vector-effect:none;fill:#000000;fill-opacity:1;stroke:none;stroke-width:0.0409728;stroke-linecap:butt;stroke-linejoin:miter;stroke-miterlimit:4;stroke-dasharray:none;stroke-dashoffset:0;stroke-opacity:1;-inkscape-stroke:none;stop-color:#000000;stop-opacity:1"
         id="rect17730"
         width="30"
         height="2.9527476"
         x="-11.932364"
         y="22.247591"
         rx="0.10076748"
         ry="0.11250709" />
      <text
         xml:space="preserve"
         transform="matrix(0.15364384,0,0,0.15364384,-1.442135,32.917211)"
         id="text17736"
         style="font-size:13.3333px;line-height:1.1;font-family:Roboto;-inkscape-font-specification:Roboto;text-align:start;letter-spacing:1.36042px;word-spacing:0px;white-space:pre;shape-inside:url(#rect17740);display:inline;fill:#ffffff;fill-opacity:1;stroke-width:0.307892"
         x="0"
         y="0"><tspan
           x="-62.458984"
           y="-55.674793"
           id="tspan28"><tspan
             style="font-weight:bold;font-family:Inconsolata;-inkscape-font-specification:'Inconsolata Bold'"
             id="tspan27">technikum29 INV/E/1234</tspan></tspan></text>
    </g>
    <g
       id="g22036"
       transform="matrix(0,3.2478905,-3.2478905,0,71.569211,38.099113)"
       style="stroke-width:0.307892">
      <rect
         style="opacity:1;vector-effect:none;fill:#000000;fill-opacity:1;stroke:none;stroke-width:0.0409728;stroke-linecap:butt;stroke-linejoin:miter;stroke-miterlimit:4;stroke-dasharray:none;stroke-dashoffset:0;stroke-opacity:1;-inkscape-stroke:none;stop-color:#000000;stop-opacity:1"
         id="rect22030"
         width="30"
         height="2.9527476"
         x="-11.932364"
         y="22.247591"
         rx="0.10076748"
         ry="0.11250709" />
      <text
         xml:space="preserve"
         transform="matrix(0.15364384,0,0,0.15364384,-1.442135,32.917211)"
         id="text22034"
         style="font-size:13.3333px;line-height:1.1;font-family:Roboto;-inkscape-font-specification:Roboto;text-align:start;letter-spacing:1.36042px;word-spacing:0px;white-space:pre;shape-inside:url(#rect22038);display:inline;fill:#ffffff;fill-opacity:1;stroke-width:0.307892"
         x="0"
         y="0"><tspan
           x="-62.458984"
           y="-55.674793"
           id="tspan30"><tspan
             style="font-weight:bold;font-family:Inconsolata;-inkscape-font-specification:'Inconsolata Bold'"
             id="tspan29">technikum29 INV/E/1234</tspan></tspan></text>
    </g>
    <rect
       style="fill:none;stroke:#000000;stroke-width:0.4;stroke-linecap:round;stroke-opacity:1;-inkscape-stroke:none;stop-color:#000000"
       id="rect46446"
       width="57.577873"
       height="24.617064"
       x="76.425903"
       y="61.589275"
       rx="1.4855465"
       ry="1.4855465" />
    <g
       fill="#000000"
       id="qrcode"
       transform="matrix(1.5056688,0,0,1.4635293,6.1682107,55.935184)"
       style="stroke-width:5.0595">
      <path
         d="m 10,22 v 1 h 1 v -1 z m 10,2 v 1 h 1 V 24 Z M 8,4 V 5 H 9 V 4 Z m 0,9 v 1 H 9 V 13 Z M 21,7 v 1 h 1 V 7 Z m 2,-3 v 1 h 1 V 4 Z m -5,13 v 1 h 1 v -1 z m 3,-1 v 1 h 1 v -1 z m 2,-3 v 1 h 1 v -1 z m -9,-3 v 1 h 1 v -1 z m -1,2 v 1 h 1 V 12 Z M 4,9 v 1 H 5 V 9 Z M 6,6 V 7 H 7 V 6 Z m 6,16 v 1 h 1 v -1 z m 1,-1 v 1 h 1 V 21 Z M 4,18 v 1 h 1 v -1 z m 2,-3 v 1 h 1 v -1 z m 11,-3 v 1 h 1 V 12 Z M 10,6 v 1 h 1 V 6 Z m 7,15 v 1 h 1 v -1 z m 3,-4 v 1 h 1 v -1 z m -10,7 v 1 h 1 V 24 Z M 8,6 V 7 H 9 V 6 Z m 14,17 v 1 h 1 V 23 Z M 7,10 v 1 h 1 v -1 z m 6,-5 v 1 h 1 V 5 Z m 3,17 v 1 h 1 V 22 Z M 9,16 v 1 h 1 v -1 z m 12,2 v 1 h 1 v -1 z m -8,-4 v 1 h 1 V 14 Z M 6,8 V 9 H 7 V 8 Z m 7,15 v 1 h 1 V 23 Z M 4,20 v 1 h 1 v -1 z m 1,-8 v 1 h 1 v -1 z m 12,2 v 1 h 1 V 14 Z M 10,8 v 1 h 1 V 8 Z m 10,2 v 1 h 1 v -1 z m 2,-3 v 1 h 1 V 7 Z m -5,16 v 1 h 1 v -1 z m -3,1 v 1 h 1 v -1 z m 6,-5 v 1 h 1 v -1 z m -9,-3 v 1 h 1 V 16 Z M 7,12 v 1 h 1 v -1 z m 9,12 v 1 h 1 V 24 Z M 4,4 V 5 H 5 V 4 Z m 11,0 v 1 h 1 V 4 Z M 9,18 v 1 h 1 v -1 z m -2,3 v 1 h 1 v -1 z m 8,-8 v 1 h 1 v -1 z m 4,-9 v 1 h 1 V 4 Z m 0,9 v 1 h 1 v -1 z m -9,-3 v 1 h 1 v -1 z m 10,11 v 1 h 1 v -1 z m 2,-3 v 1 h 1 V 18 Z M 18,5 v 1 h 1 V 5 Z m 3,-1 v 1 h 1 V 4 Z m 2,6 v 1 h 1 V 10 Z M 4,6 V 7 H 5 V 6 Z m 11,0 v 1 h 1 V 6 Z M 8,22 v 1 h 1 v -1 z m 6,-3 v 1 h 1 v -1 z m 5,-4 v 1 h 1 V 15 Z M 6,24 v 1 H 7 V 24 Z M 24,5 v 1 h 1 V 5 Z m -8,5 v 1 h 1 V 10 Z M 7,7 V 8 H 8 V 7 Z M 9,4 v 1 h 1 V 4 Z m 12,2 v 1 h 1 V 6 Z m -3,1 v 1 h 1 V 7 Z M 7,16 v 1 h 1 v -1 z m 2,-3 v 1 h 1 v -1 z m 9,3 v 1 h 1 v -1 z m -5,-5 v 1 h 1 v -1 z m 2,-3 v 1 h 1 V 8 Z M 8,24 v 1 h 1 v -1 z m 5,-4 v 1 h 1 V 20 Z M 10,5 v 1 h 1 V 5 Z m 10,2 v 1 h 1 V 7 Z m 2,-3 v 1 h 1 V 4 Z M 5,18 v 1 h 1 v -1 z m 12,2 v 1 h 1 v -1 z m -3,1 v 1 h 1 v -1 z m -2,3 v 1 h 1 V 24 Z M 22,13 v 1 h 1 v -1 z m 1,11 v 1 h 1 V 24 Z M 24,7 v 1 h 1 V 7 Z m -8,5 v 1 h 1 v -1 z m 2,-3 v 1 h 1 V 9 Z m 3,-1 v 1 h 1 V 8 Z M 8,8 V 9 H 9 V 8 Z m 5,-4 v 1 h 1 V 4 Z M 7,18 v 1 h 1 v -1 z m 11,0 v 1 h 1 V 18 Z M 14,5 v 1 h 1 V 5 Z m -2,12 v 1 h 1 v -1 z m 2,-3 v 1 h 1 v -1 z m 3,-1 v 1 h 1 v -1 z m 2,-3 v 1 h 1 V 10 Z M 6,10 v 1 h 1 v -1 z m 17,7 v 1 h 1 V 17 Z M 22,6 v 1 h 1 V 6 Z M 4,22 v 1 h 1 v -1 z m 11,0 v 1 h 1 v -1 z m 7,-7 v 1 h 1 v -1 z m 2,-6 v 1 h 1 V 9 Z M 16,5 v 1 h 1 V 5 Z m -6,14 v 1 h 1 v -1 z m 6,-5 v 1 h 1 V 14 Z M 8,10 v 1 h 1 v -1 z m 5,-4 v 1 h 1 V 6 Z M 7,20 v 1 h 1 v -1 z m 11,0 v 1 h 1 v -1 z m -2,3 v 1 h 1 V 23 Z M 12,10 v 1 h 1 v -1 z m 2,-3 v 1 h 1 V 7 Z M 5,4 V 5 H 6 V 4 Z m 16,18 v 1 h 1 v -1 z m 2,-3 v 1 h 1 V 19 Z M 5,13 v 1 h 1 v -1 z m -1,2 v 1 h 1 v -1 z m 2,-3 v 1 h 1 v -1 z m 9,3 v 1 h 1 v -1 z m 7,-7 v 1 h 1 V 8 Z m -5,7 v 1 h 1 V 15 Z M 4,24 v 1 h 1 v -1 z m 2,-3 v 1 h 1 v -1 z m 14,-1 v 1 h 1 V 20 Z M 10,12 v 1 h 1 v -1 z m 6,-5 v 1 h 1 V 7 Z M 7,4 V 5 H 8 V 4 Z m 11,0 v 1 h 1 V 4 Z m -8,17 v 1 h 1 v -1 z m 9,3 v 1 h 1 V 24 Z M 9,10 v 1 h 1 v -1 z m -1,2 v 1 H 9 V 12 Z M 7,22 v 1 h 1 v -1 z m 1,-1 v 1 h 1 v -1 z m 4,-9 v 1 h 1 v -1 z m 2,-3 v 1 h 1 V 9 Z m 9,3 v 1 h 1 V 12 Z M 4,8 V 9 H 5 V 8 Z M 20,4 v 1 h 1 V 4 Z m -6,14 v 1 h 1 V 18 Z M 5,15 v 1 h 1 v -1 z m 7,6 v 1 h 1 v -1 z m 11,0 v 1 h 1 v -1 z m -3,-8 v 1 h 1 V 13 Z M 5,24 v 1 H 6 V 24 Z M 24,4 v 1 h 1 V 4 Z M 10,14 v 1 h 1 v -1 z m 14,-1 v 1 h 1 V 13 Z M 16,9 v 1 h 1 V 9 Z M 7,6 V 7 H 8 V 6 Z m 11,0 v 1 h 1 V 6 Z m -8,17 v 1 h 1 v -1 z m 6,-5 v 1 h 1 V 18 Z M 8,14 v 1 h 1 v -1 z m 4,-9 v 1 h 1 V 5 Z m -8,5 v 1 H 5 V 10 Z M 6,7 V 8 H 7 V 7 Z M 20,6 v 1 h 1 V 6 Z m -8,17 v 1 h 1 v -1 z m -3,1 v 1 h 1 V 24 Z M 4,19 v 1 h 1 v -1 z m 2,-3 v 1 h 1 v -1 z m 4,-9 v 1 h 1 V 7 Z M 24,6 v 1 h 1 V 6 Z m -5,13 v 1 h 1 v -1 z m -9,-3 v 1 h 1 v -1 z m 6,-5 v 1 h 1 V 11 Z M 7,8 V 9 H 8 V 8 Z m 11,0 v 1 h 1 V 8 Z M 8,7 V 8 H 9 V 7 Z m 8,13 v 1 h 1 V 20 Z M 8,16 v 1 h 1 v -1 z m 13,-6 v 1 h 1 V 10 Z M 12,7 v 1 h 1 V 7 Z m 0,9 v 1 h 1 v -1 z m 11,0 v 1 h 1 V 16 Z M 5,10 v 1 h 1 v -1 z m -1,2 v 1 H 5 V 12 Z M 20,8 v 1 h 1 V 8 Z m -7,16 v 1 h 1 V 24 Z M 4,21 v 1 h 1 v -1 z m 2,-3 v 1 h 1 v -1 z m 9,3 v 1 h 1 v -1 z m 4,-9 v 1 h 1 V 12 Z M 10,9 v 1 h 1 V 9 Z M 24,8 v 1 h 1 V 8 Z m -5,13 v 1 h 1 v -1 z m -9,-3 v 1 h 1 v -1 z m 14,-1 v 1 h 1 v -1 z m -6,-7 v 1 h 1 V 10 Z M 8,18 v 1 h 1 v -1 z m 13,-6 v 1 h 1 V 12 Z M 12,9 v 1 h 1 V 9 Z m 1,-1 v 1 h 1 V 8 Z M 4,5 V 6 H 5 V 5 Z m 17,16 v 1 h 1 v -1 z m -9,-3 v 1 h 1 v -1 z m 2,-3 v 1 h 1 v -1 z m -1,2 v 1 h 1 v -1 z m 10,1 v 1 h 1 V 18 Z M 4,23 v 1 h 1 v -1 z m 2,-3 v 1 h 1 v -1 z m 9,3 v 1 h 1 v -1 z m 2,-6 v 1 h 1 v -1 z m 7,-7 v 1 h 1 v -1 z m -2,0 v 1 h 1 V 10 Z M 16,6 v 1 h 1 V 6 Z m -6,14 v 1 h 1 v -1 z m 12,-1 v 1 h 1 V 19 Z M 8,20 v 1 H 9 V 20 Z M 4,7 V 8 H 5 V 7 Z M 6,4 V 5 H 7 V 4 Z m 6,16 v 1 h 1 v -1 z m 9,3 v 1 h 1 v -1 z m -8,-4 v 1 h 1 V 19 Z M 4,16 v 1 h 1 v -1 z m 2,-3 v 1 h 1 v -1 z m 9,3 v 1 h 1 v -1 z m -8,8 v 1 h 1 v -1 z m 11,0 v 1 h 1 V 24 Z M 6,22 v 1 H 7 V 22 Z M 10,4 v 1 h 1 V 4 Z m 7,15 v 1 h 1 v -1 z m 3,-4 v 1 h 1 v -1 z m -9,-3 v 1 h 1 v -1 z"
         id="qr-path"
         fill="#000000"
         fill-opacity="1"
         fill-rule="nonzero"
         stroke="none"
         style="stroke-width:5.0595" />
    </g>
    <text
       xml:space="preserve"
       style="font-style:normal;font-variant:normal;font-weight:normal;font-stretch:normal;font-size:1.85401px;line-height:1.1;font-family:Roboto;-inkscape-font-specification:Roboto;font-variant-ligatures:normal;font-variant-position:normal;font-variant-caps:normal;font-variant-numeric:normal;font-variant-alternates:normal;font-variant-east-asian:normal;font-feature-settings:normal;font-variation-settings:normal;text-indent:0;text-align:start;text-decoration-line:none;text-decoration-style:solid;text-decoration-color:#000000;letter-spacing:0px;word-spacing:0px;text-transform:none;writing-mode:lr-tb;direction:ltr;text-orientation:mixed;dominant-baseline:auto;baseline-shift:baseline;white-space:pre;shape-inside:url(#rect17020);shape-padding:0;shape-margin:0;inline-size:0;display:inline;opacity:1;vector-effect:none;fill:#000000;fill-opacity:1;stroke-width:0.0560198;stroke-linecap:butt;stroke-linejoin:miter;stroke-miterlimit:4;stroke-dasharray:none;stroke-dashoffset:0;stroke-opacity:1;-inkscape-stroke:none;stop-color:#000000;stop-opacity:1"
       x="13.236777"
       y="22.025084"
       id="text3576"
       transform="matrix(2.1986005,0,0,2.1986005,213.16587,236.41641)"><tspan
         x="-62.458984"
         y="-65.648862"
         id="tspan32"><tspan
           style="font-weight:bold;font-family:Inconsolata;-inkscape-font-specification:'Inconsolata Bold';baseline-shift:baseline;shape-inside:url(#rect17020);vector-effect:none;stop-color:#000000;stop-opacity:1"
           id="tspan31">Serie E – Nov 2023 Sven Köppel</tspan></tspan></text>
  </g>
</svg>
