<?xml version="1.0" encoding="UTF-8" standalone="no"?>
<!-- Created with Inkscape (http://www.inkscape.org/) -->

<svg
   width="55mm"
   height="30mm"
   viewBox="0 0 54.999987 30"
   version="1.1"
   id="svg5"
   inkscape:version="1.1.1 (3bf5ae0d25, 2021-09-20, custom)"
   sodipodi:docname="t29-sec-labels.svg"
   inkscape:export-filename="/home/sven/Analog/Hardware/the-analog-thing/Production/SN-Sticker/THAT-SerialNumber-Sticker.png"
   inkscape:export-xdpi="199.97398"
   inkscape:export-ydpi="199.97398"
   xmlns:inkscape="http://www.inkscape.org/namespaces/inkscape"
   xmlns:sodipodi="http://sodipodi.sourceforge.net/DTD/sodipodi-0.dtd"
   xmlns="http://www.w3.org/2000/svg"
   xmlns:svg="http://www.w3.org/2000/svg">
  <sodipodi:namedview
     id="namedview7"
     pagecolor="#ffffff"
     bordercolor="#999999"
     borderopacity="1"
     inkscape:pageshadow="0"
     inkscape:pageopacity="1"
     inkscape:pagecheckerboard="0"
     inkscape:document-units="mm"
     showgrid="false"
     lock-margins="true"
     fit-margin-top="5"
     fit-margin-left="5"
     fit-margin-right="5"
     fit-margin-bottom="5"
     inkscape:zoom="4"
     inkscape:cx="114.625"
     inkscape:cy="74.375001"
     inkscape:window-width="2281"
     inkscape:window-height="1230"
     inkscape:window-x="2332"
     inkscape:window-y="98"
     inkscape:window-maximized="0"
     inkscape:current-layer="layer1" />
  <defs
     id="defs2">
    <rect
       x="-62.459854"
       y="-67.258881"
       width="237.94627"
       height="54.283487"
       id="rect8749" />
    <rect
       x="-7.4318151"
       y="42.423313"
       width="121.92117"
       height="138.37334"
       id="rect37722" />
    <rect
       x="-62.459854"
       y="-67.258881"
       width="181.08118"
       height="36.486263"
       id="rect25355" />
    <rect
       x="-62.459854"
       y="-67.258881"
       width="175.93295"
       height="54.321499"
       id="rect32180" />
    <rect
       x="-62.459854"
       y="-67.258881"
       width="218.75264"
       height="45.638333"
       id="rect3763" />
    <rect
       x="-62.459854"
       y="-67.258881"
       width="354.93985"
       height="46.073608"
       id="rect26033" />
    <rect
       x="-62.459854"
       y="-67.258881"
       width="79.500397"
       height="48.693637"
       id="rect5984" />
    <rect
       x="-62.459854"
       y="-67.258881"
       width="354.93985"
       height="46.073608"
       id="rect37490" />
    <rect
       x="-62.459854"
       y="-67.258881"
       width="175.93295"
       height="54.321499"
       id="rect5558" />
    <rect
       x="-62.459854"
       y="-67.258881"
       width="152.24422"
       height="73.899063"
       id="rect8749-9" />
    <rect
       x="-62.459854"
       y="-67.258881"
       width="249.63505"
       height="24.613928"
       id="rect20292" />
    <rect
       x="-62.459854"
       y="-67.258881"
       width="237.94627"
       height="54.283485"
       id="rect8749-7" />
    <rect
       x="-62.459854"
       y="-67.258881"
       width="237.94627"
       height="54.283485"
       id="rect8749-4" />
    <rect
       x="-62.459854"
       y="-67.258881"
       width="264.10867"
       height="37.562863"
       id="rect21922" />
    <rect
       x="-62.459854"
       y="-67.258881"
       width="237.94627"
       height="54.283487"
       id="rect4586" />
    <rect
       x="-62.459854"
       y="-67.258881"
       width="237.94627"
       height="54.283487"
       id="rect5472" />
    <rect
       x="-62.459854"
       y="-67.258881"
       width="237.94627"
       height="54.283487"
       id="rect11984" />
    <rect
       x="-62.459854"
       y="-67.258881"
       width="397.49423"
       height="53.68531"
       id="rect17020" />
    <rect
       x="-62.459854"
       y="-67.258881"
       width="249.63505"
       height="24.613928"
       id="rect17740" />
    <rect
       x="-62.459854"
       y="-67.258881"
       width="249.63505"
       height="24.613928"
       id="rect22038" />
    <rect
       x="-62.459854"
       y="-67.258881"
       width="397.49423"
       height="53.68531"
       id="rect17020-1" />
  </defs>
  <g
     inkscape:label="Ebene 1"
     inkscape:groupmode="layer"
     id="layer1"
     transform="translate(12.655515,3.6913741)">
    <text
       xml:space="preserve"
       style="font-size:3.95047px;line-height:1;font-family:Roboto;-inkscape-font-specification:Roboto;text-align:center;letter-spacing:0px;word-spacing:0px;text-anchor:middle;stroke-width:0.0987619"
       x="3.1631103"
       y="19.908697"
       id="text1976"><tspan
         sodipodi:role="line"
         style="font-style:normal;font-variant:normal;font-weight:normal;font-stretch:normal;font-family:Arial;-inkscape-font-specification:Arial;text-align:start;text-anchor:start;stroke-width:0.0987619"
         x="3.1631103"
         y="19.908697"
         id="tspan44159" /></text>
    <text
       xml:space="preserve"
       style="font-size:9.58296px;line-height:1.25;font-family:Roboto;-inkscape-font-specification:Roboto;letter-spacing:0px;word-spacing:0px;fill:#fefefe;fill-opacity:1;stroke-width:0.204253"
       x="8.2618742"
       y="18.412521"
       id="serial"><tspan
         sodipodi:role="line"
         style="font-style:normal;font-variant:normal;font-weight:bold;font-stretch:normal;font-family:Courier;-inkscape-font-specification:'Courier Bold';fill:#000000;fill-opacity:1;stroke-width:0.204253"
         x="8.2618742"
         y="18.412521"
         id="tspan25573">1234</tspan></text>
    <text
       xml:space="preserve"
       transform="matrix(0.26458333,0,0,0.26458333,-1.1534517,-0.5802724)"
       id="text37720"
       style="font-size:40px;line-height:1.25;font-family:Roboto;-inkscape-font-specification:Roboto;letter-spacing:0px;word-spacing:0px;white-space:pre;shape-inside:url(#rect37722)"><tspan
         x="-7.4316406"
         y="217.5777"
         id="tspan5911"><tspan
           dx="0 21.757812 20.625 22.558594 21.757812 20.625 22.558594"
           id="tspan5909">asdasda</tspan></tspan></text>
    <text
       xml:space="preserve"
       transform="matrix(0.14061299,0,0,0.14061299,15.028843,7.1702644)"
       id="text8747"
       style="font-size:17.562px;line-height:1.1;font-family:Roboto;-inkscape-font-specification:Roboto;text-align:start;letter-spacing:0px;word-spacing:0px;white-space:pre;shape-inside:url(#rect8749)"
       x="0"
       y="0"><tspan
         x="-62.458984"
         y="-51.893015"
         id="tspan5915"><tspan
           style="font-family:'Futura Std';-inkscape-font-specification:'Futura Std'"
           id="tspan5913">Eigentum von</tspan></tspan></text>
    <rect
       style="fill:none;stroke:#000000;stroke-width:0.799999;stroke-linecap:round;stroke-opacity:1;-inkscape-stroke:none;stop-color:#000000"
       id="rect2962"
       width="76.199997"
       height="50.799999"
       x="94.527519"
       y="-3.9259784" />
    <rect
       style="fill:none;stroke:#000000;stroke-width:0.799999;stroke-linecap:round;stroke-opacity:1;-inkscape-stroke:none;stop-color:#000000"
       id="rect3102"
       width="5"
       height="5"
       x="98.275406"
       y="0.081776932" />
    <g
       id="g828"
       transform="matrix(0.44661709,0,0,0.44661709,-19.022689,-33.083837)">
      <path
         style="color:#000000;display:inline;overflow:visible;visibility:visible;fill:none;fill-opacity:1;fill-rule:nonzero;stroke:#000000;stroke-width:1;stroke-linecap:round;stroke-linejoin:round;stroke-miterlimit:4;stroke-dasharray:none;stroke-opacity:1;marker:none;enable-background:accumulate"
         d="M 37.797628,67.350419 26.07578,98.861509 h 7.484967 c -2.6e-4,-0.03713 -0.0027,-0.07388 -0.0027,-0.111067 0,-6.844849 4.306556,-12.682063 10.3565,-14.956392 z"
         id="path2879"
         inkscape:connector-curvature="0" />
      <path
         style="color:#000000;display:inline;overflow:visible;visibility:visible;fill:#e6e6e6;fill-opacity:1;fill-rule:nonzero;stroke:#000000;stroke-width:1;stroke-linecap:round;stroke-linejoin:round;stroke-miterlimit:4;stroke-dasharray:none;stroke-opacity:1;marker:none;enable-background:accumulate"
         d="m 44.605342,85.649719 c -5.29695,1.993573 -9.064316,7.106726 -9.064316,13.100723 0,0.03722 -2.6e-4,0.07391 0,0.111067 h 4.705538 c -8.73e-4,-0.03723 0,-0.07373 0,-0.111067 0,-3.972105 2.493408,-7.362922 6.000431,-8.690471 z"
         id="path2881"
         sodipodi:nodetypes="csccscc"
         inkscape:connector-curvature="0" />
      <path
         style="color:#000000;display:inline;overflow:visible;visibility:visible;fill:#b3b3b3;fill-opacity:1;fill-rule:nonzero;stroke:#000000;stroke-width:1;stroke-linecap:round;stroke-linejoin:round;stroke-miterlimit:4;stroke-dasharray:none;stroke-opacity:1;marker:none;enable-background:accumulate"
         d="m 46.916114,91.861452 c -2.777076,1.05579 -4.751577,3.741488 -4.751577,6.88899 0,0.03725 0.0022,0.07395 0.0027,0.111067 h 7.352225 l -2.603353,-7.000057 z"
         id="path2883"
         inkscape:connector-curvature="0" />
    </g>
    <text
       xml:space="preserve"
       transform="matrix(0.14061299,0,0,0.14061299,15.124093,9.5927738)"
       id="text4584"
       style="font-size:32.6151px;line-height:1.1;font-family:Roboto;-inkscape-font-specification:Roboto;text-align:start;letter-spacing:0px;word-spacing:0px;white-space:pre;shape-inside:url(#rect4586)"
       x="0"
       y="0"><tspan
         x="-62.458984"
         y="-38.721552"
         id="tspan5919"><tspan
           style="font-weight:bold;font-family:'Futura Std';-inkscape-font-specification:'Futura Std Bold'"
           id="tspan5917">technikum29</tspan></tspan></text>
    <text
       xml:space="preserve"
       transform="matrix(0.14061299,0,0,0.14061299,15.13256,14.195836)"
       id="text5470"
       style="font-size:17.562px;line-height:1.1;font-family:Roboto;-inkscape-font-specification:Roboto;text-align:start;letter-spacing:0px;word-spacing:0px;white-space:pre;shape-inside:url(#rect5472)"
       x="0"
       y="0"><tspan
         x="-62.458984"
         y="-51.893015"
         id="tspan5923"><tspan
           style="font-family:'Futura Std';-inkscape-font-specification:'Futura Std'"
           id="tspan5921">Computermuseum</tspan></tspan></text>
    <text
       xml:space="preserve"
       transform="matrix(0.14061299,0,0,0.14061299,19.387366,18.612789)"
       id="text11982"
       style="font-size:17.562px;line-height:1.1;font-family:Roboto;-inkscape-font-specification:Roboto;text-align:start;letter-spacing:0px;word-spacing:0px;white-space:pre;shape-inside:url(#rect11984)"
       x="0"
       y="0"><tspan
         x="-62.458984"
         y="-52.00058"
         id="tspan5927"><tspan
           style="font-weight:bold;font-family:Inconsolata;-inkscape-font-specification:'Inconsolata Bold'"
           id="tspan5925">Inventarnummer:</tspan></tspan></text>
    <text
       xml:space="preserve"
       transform="matrix(0.12316452,0,0,0.12316452,-0.61625336,30.102422)"
       id="text17018"
       style="font-size:15.0531px;line-height:1.1;font-family:Roboto;-inkscape-font-specification:Roboto;text-align:start;letter-spacing:0px;word-spacing:0px;white-space:pre;shape-inside:url(#rect17020)"
       x="0"
       y="0"><tspan
         x="-62.458984"
         y="-54.180502"
         id="tspan5931"><tspan
           style="font-weight:bold;font-family:Inconsolata;-inkscape-font-specification:'Inconsolata Bold'"
           id="tspan5929">
</tspan></tspan><tspan
         x="-62.458984"
         y="-37.25548"
         id="tspan5935"><tspan
           style="font-weight:bold;font-family:Inconsolata;-inkscape-font-specification:'Inconsolata Bold'"
           id="tspan5933">Achtung: Sicherheits-Typenetikett nicht entfernbar</tspan></tspan></text>
    <g
       id="g17738"
       transform="rotate(-90,15.544331,-1.1285533)">
      <rect
         style="opacity:1;vector-effect:none;fill:#000000;fill-opacity:1;stroke:none;stroke-width:0.133075;stroke-linecap:butt;stroke-linejoin:miter;stroke-miterlimit:4;stroke-dasharray:none;stroke-dashoffset:0;stroke-opacity:1;-inkscape-stroke:none;stop-color:#000000;stop-opacity:1"
         id="rect17730"
         width="30"
         height="2.9527476"
         x="-11.932364"
         y="22.247591"
         rx="0.32728177"
         ry="0.36541075" />
      <text
         xml:space="preserve"
         transform="matrix(0.15364384,0,0,0.15364384,-1.442135,32.917211)"
         id="text17736"
         style="font-size:13.3333px;line-height:1.1;font-family:Roboto;-inkscape-font-specification:Roboto;text-align:start;letter-spacing:1.36042px;word-spacing:0px;white-space:pre;shape-inside:url(#rect17740);fill:#ffffff;fill-opacity:1"
         x="0"
         y="0"><tspan
           x="-62.458984"
           y="-55.674793"
           id="tspan5939"><tspan
             style="font-weight:bold;font-family:Inconsolata;-inkscape-font-specification:'Inconsolata Bold'"
             id="tspan5937">technikum29 INV/D/1234</tspan></tspan></text>
    </g>
    <g
       id="g22036"
       transform="rotate(90,2.3218978,10.602404)">
      <rect
         style="opacity:1;vector-effect:none;fill:#000000;fill-opacity:1;stroke:none;stroke-width:0.133075;stroke-linecap:butt;stroke-linejoin:miter;stroke-miterlimit:4;stroke-dasharray:none;stroke-dashoffset:0;stroke-opacity:1;-inkscape-stroke:none;stop-color:#000000;stop-opacity:1"
         id="rect22030"
         width="30"
         height="2.9527476"
         x="-11.932364"
         y="22.247591"
         rx="0.32728177"
         ry="0.36541075" />
      <text
         xml:space="preserve"
         transform="matrix(0.15364384,0,0,0.15364384,-1.442135,32.917211)"
         id="text22034"
         style="font-size:13.3333px;line-height:1.1;font-family:Roboto;-inkscape-font-specification:Roboto;text-align:start;letter-spacing:1.36042px;word-spacing:0px;white-space:pre;shape-inside:url(#rect22038);fill:#ffffff;fill-opacity:1"
         x="0"
         y="0"><tspan
           x="-62.458984"
           y="-55.674793"
           id="tspan5943"><tspan
             style="font-weight:bold;font-family:Inconsolata;-inkscape-font-specification:'Inconsolata Bold'"
             id="tspan5941">technikum29 INV/D/1234</tspan></tspan></text>
    </g>
    <rect
       style="fill:none;stroke:#000000;stroke-width:0.4;stroke-linecap:round;stroke-opacity:1;-inkscape-stroke:none;stop-color:#000000"
       id="rect46446"
       width="26.188421"
       height="11.196697"
       x="6.6240988"
       y="8.7941599"
       rx="1.4855465"
       ry="1.4855465" />
    <g
       fill="#000000"
       id="qrcode"
       transform="matrix(0.51793751,0,0,0.50344191,-9.6517194,10.691541)"
       style="stroke-width:14.7082">
      <path
         d="m 10,22 v 1 h 1 v -1 z m 10,2 v 1 h 1 V 24 Z M 8,4 V 5 H 9 V 4 Z m 0,9 v 1 H 9 V 13 Z M 21,7 v 1 h 1 V 7 Z m 2,-3 v 1 h 1 V 4 Z m -5,13 v 1 h 1 v -1 z m 3,-1 v 1 h 1 v -1 z m 2,-3 v 1 h 1 v -1 z m -9,-3 v 1 h 1 v -1 z m -1,2 v 1 h 1 V 12 Z M 4,9 v 1 H 5 V 9 Z M 6,6 V 7 H 7 V 6 Z m 6,16 v 1 h 1 v -1 z m 1,-1 v 1 h 1 V 21 Z M 4,18 v 1 h 1 v -1 z m 2,-3 v 1 h 1 v -1 z m 11,-3 v 1 h 1 V 12 Z M 10,6 v 1 h 1 V 6 Z m 7,15 v 1 h 1 v -1 z m 3,-4 v 1 h 1 v -1 z m -10,7 v 1 h 1 V 24 Z M 8,6 V 7 H 9 V 6 Z m 14,17 v 1 h 1 V 23 Z M 7,10 v 1 h 1 v -1 z m 6,-5 v 1 h 1 V 5 Z m 3,17 v 1 h 1 V 22 Z M 9,16 v 1 h 1 v -1 z m 12,2 v 1 h 1 v -1 z m -8,-4 v 1 h 1 V 14 Z M 6,8 V 9 H 7 V 8 Z m 7,15 v 1 h 1 V 23 Z M 4,20 v 1 h 1 v -1 z m 1,-8 v 1 h 1 v -1 z m 12,2 v 1 h 1 V 14 Z M 10,8 v 1 h 1 V 8 Z m 10,2 v 1 h 1 v -1 z m 2,-3 v 1 h 1 V 7 Z m -5,16 v 1 h 1 v -1 z m -3,1 v 1 h 1 v -1 z m 6,-5 v 1 h 1 v -1 z m -9,-3 v 1 h 1 V 16 Z M 7,12 v 1 h 1 v -1 z m 9,12 v 1 h 1 V 24 Z M 4,4 V 5 H 5 V 4 Z m 11,0 v 1 h 1 V 4 Z M 9,18 v 1 h 1 v -1 z m -2,3 v 1 h 1 v -1 z m 8,-8 v 1 h 1 v -1 z m 4,-9 v 1 h 1 V 4 Z m 0,9 v 1 h 1 v -1 z m -9,-3 v 1 h 1 v -1 z m 10,11 v 1 h 1 v -1 z m 2,-3 v 1 h 1 V 18 Z M 18,5 v 1 h 1 V 5 Z m 3,-1 v 1 h 1 V 4 Z m 2,6 v 1 h 1 V 10 Z M 4,6 V 7 H 5 V 6 Z m 11,0 v 1 h 1 V 6 Z M 8,22 v 1 h 1 v -1 z m 6,-3 v 1 h 1 v -1 z m 5,-4 v 1 h 1 V 15 Z M 6,24 v 1 H 7 V 24 Z M 24,5 v 1 h 1 V 5 Z m -8,5 v 1 h 1 V 10 Z M 7,7 V 8 H 8 V 7 Z M 9,4 v 1 h 1 V 4 Z m 12,2 v 1 h 1 V 6 Z m -3,1 v 1 h 1 V 7 Z M 7,16 v 1 h 1 v -1 z m 2,-3 v 1 h 1 v -1 z m 9,3 v 1 h 1 v -1 z m -5,-5 v 1 h 1 v -1 z m 2,-3 v 1 h 1 V 8 Z M 8,24 v 1 h 1 v -1 z m 5,-4 v 1 h 1 V 20 Z M 10,5 v 1 h 1 V 5 Z m 10,2 v 1 h 1 V 7 Z m 2,-3 v 1 h 1 V 4 Z M 5,18 v 1 h 1 v -1 z m 12,2 v 1 h 1 v -1 z m -3,1 v 1 h 1 v -1 z m -2,3 v 1 h 1 V 24 Z M 22,13 v 1 h 1 v -1 z m 1,11 v 1 h 1 V 24 Z M 24,7 v 1 h 1 V 7 Z m -8,5 v 1 h 1 v -1 z m 2,-3 v 1 h 1 V 9 Z m 3,-1 v 1 h 1 V 8 Z M 8,8 V 9 H 9 V 8 Z m 5,-4 v 1 h 1 V 4 Z M 7,18 v 1 h 1 v -1 z m 11,0 v 1 h 1 V 18 Z M 14,5 v 1 h 1 V 5 Z m -2,12 v 1 h 1 v -1 z m 2,-3 v 1 h 1 v -1 z m 3,-1 v 1 h 1 v -1 z m 2,-3 v 1 h 1 V 10 Z M 6,10 v 1 h 1 v -1 z m 17,7 v 1 h 1 V 17 Z M 22,6 v 1 h 1 V 6 Z M 4,22 v 1 h 1 v -1 z m 11,0 v 1 h 1 v -1 z m 7,-7 v 1 h 1 v -1 z m 2,-6 v 1 h 1 V 9 Z M 16,5 v 1 h 1 V 5 Z m -6,14 v 1 h 1 v -1 z m 6,-5 v 1 h 1 V 14 Z M 8,10 v 1 h 1 v -1 z m 5,-4 v 1 h 1 V 6 Z M 7,20 v 1 h 1 v -1 z m 11,0 v 1 h 1 v -1 z m -2,3 v 1 h 1 V 23 Z M 12,10 v 1 h 1 v -1 z m 2,-3 v 1 h 1 V 7 Z M 5,4 V 5 H 6 V 4 Z m 16,18 v 1 h 1 v -1 z m 2,-3 v 1 h 1 V 19 Z M 5,13 v 1 h 1 v -1 z m -1,2 v 1 h 1 v -1 z m 2,-3 v 1 h 1 v -1 z m 9,3 v 1 h 1 v -1 z m 7,-7 v 1 h 1 V 8 Z m -5,7 v 1 h 1 V 15 Z M 4,24 v 1 h 1 v -1 z m 2,-3 v 1 h 1 v -1 z m 14,-1 v 1 h 1 V 20 Z M 10,12 v 1 h 1 v -1 z m 6,-5 v 1 h 1 V 7 Z M 7,4 V 5 H 8 V 4 Z m 11,0 v 1 h 1 V 4 Z m -8,17 v 1 h 1 v -1 z m 9,3 v 1 h 1 V 24 Z M 9,10 v 1 h 1 v -1 z m -1,2 v 1 H 9 V 12 Z M 7,22 v 1 h 1 v -1 z m 1,-1 v 1 h 1 v -1 z m 4,-9 v 1 h 1 v -1 z m 2,-3 v 1 h 1 V 9 Z m 9,3 v 1 h 1 V 12 Z M 4,8 V 9 H 5 V 8 Z M 20,4 v 1 h 1 V 4 Z m -6,14 v 1 h 1 V 18 Z M 5,15 v 1 h 1 v -1 z m 7,6 v 1 h 1 v -1 z m 11,0 v 1 h 1 v -1 z m -3,-8 v 1 h 1 V 13 Z M 5,24 v 1 H 6 V 24 Z M 24,4 v 1 h 1 V 4 Z M 10,14 v 1 h 1 v -1 z m 14,-1 v 1 h 1 V 13 Z M 16,9 v 1 h 1 V 9 Z M 7,6 V 7 H 8 V 6 Z m 11,0 v 1 h 1 V 6 Z m -8,17 v 1 h 1 v -1 z m 6,-5 v 1 h 1 V 18 Z M 8,14 v 1 h 1 v -1 z m 4,-9 v 1 h 1 V 5 Z m -8,5 v 1 H 5 V 10 Z M 6,7 V 8 H 7 V 7 Z M 20,6 v 1 h 1 V 6 Z m -8,17 v 1 h 1 v -1 z m -3,1 v 1 h 1 V 24 Z M 4,19 v 1 h 1 v -1 z m 2,-3 v 1 h 1 v -1 z m 4,-9 v 1 h 1 V 7 Z M 24,6 v 1 h 1 V 6 Z m -5,13 v 1 h 1 v -1 z m -9,-3 v 1 h 1 v -1 z m 6,-5 v 1 h 1 V 11 Z M 7,8 V 9 H 8 V 8 Z m 11,0 v 1 h 1 V 8 Z M 8,7 V 8 H 9 V 7 Z m 8,13 v 1 h 1 V 20 Z M 8,16 v 1 h 1 v -1 z m 13,-6 v 1 h 1 V 10 Z M 12,7 v 1 h 1 V 7 Z m 0,9 v 1 h 1 v -1 z m 11,0 v 1 h 1 V 16 Z M 5,10 v 1 h 1 v -1 z m -1,2 v 1 H 5 V 12 Z M 20,8 v 1 h 1 V 8 Z m -7,16 v 1 h 1 V 24 Z M 4,21 v 1 h 1 v -1 z m 2,-3 v 1 h 1 v -1 z m 9,3 v 1 h 1 v -1 z m 4,-9 v 1 h 1 V 12 Z M 10,9 v 1 h 1 V 9 Z M 24,8 v 1 h 1 V 8 Z m -5,13 v 1 h 1 v -1 z m -9,-3 v 1 h 1 v -1 z m 14,-1 v 1 h 1 v -1 z m -6,-7 v 1 h 1 V 10 Z M 8,18 v 1 h 1 v -1 z m 13,-6 v 1 h 1 V 12 Z M 12,9 v 1 h 1 V 9 Z m 1,-1 v 1 h 1 V 8 Z M 4,5 V 6 H 5 V 5 Z m 17,16 v 1 h 1 v -1 z m -9,-3 v 1 h 1 v -1 z m 2,-3 v 1 h 1 v -1 z m -1,2 v 1 h 1 v -1 z m 10,1 v 1 h 1 V 18 Z M 4,23 v 1 h 1 v -1 z m 2,-3 v 1 h 1 v -1 z m 9,3 v 1 h 1 v -1 z m 2,-6 v 1 h 1 v -1 z m 7,-7 v 1 h 1 v -1 z m -2,0 v 1 h 1 V 10 Z M 16,6 v 1 h 1 V 6 Z m -6,14 v 1 h 1 v -1 z m 12,-1 v 1 h 1 V 19 Z M 8,20 v 1 H 9 V 20 Z M 4,7 V 8 H 5 V 7 Z M 6,4 V 5 H 7 V 4 Z m 6,16 v 1 h 1 v -1 z m 9,3 v 1 h 1 v -1 z m -8,-4 v 1 h 1 V 19 Z M 4,16 v 1 h 1 v -1 z m 2,-3 v 1 h 1 v -1 z m 9,3 v 1 h 1 v -1 z m -8,8 v 1 h 1 v -1 z m 11,0 v 1 h 1 V 24 Z M 6,22 v 1 H 7 V 22 Z M 10,4 v 1 h 1 V 4 Z m 7,15 v 1 h 1 v -1 z m 3,-4 v 1 h 1 v -1 z m -9,-3 v 1 h 1 v -1 z"
         id="qr-path"
         fill="#000000"
         fill-opacity="1"
         fill-rule="nonzero"
         stroke="none" />
    </g>
    <text
       xml:space="preserve"
       style="font-style:normal;font-variant:normal;font-weight:normal;font-stretch:normal;font-size:1.85401px;line-height:1.1;font-family:Roboto;-inkscape-font-specification:Roboto;font-variant-ligatures:normal;font-variant-position:normal;font-variant-caps:normal;font-variant-numeric:normal;font-variant-alternates:normal;font-variant-east-asian:normal;font-feature-settings:normal;font-variation-settings:normal;text-indent:0;text-align:start;text-decoration-line:none;text-decoration-style:solid;text-decoration-color:#000000;letter-spacing:0px;word-spacing:0px;text-transform:none;writing-mode:lr-tb;direction:ltr;text-orientation:mixed;dominant-baseline:auto;baseline-shift:baseline;white-space:pre;shape-inside:url(#rect17020);shape-padding:0;shape-margin:0;inline-size:0;opacity:1;vector-effect:none;fill:#000000;fill-opacity:1;stroke-width:0.123165;stroke-linecap:butt;stroke-linejoin:miter;stroke-miterlimit:4;stroke-dasharray:none;stroke-dashoffset:0;stroke-opacity:1;-inkscape-stroke:none;stop-color:#000000;stop-opacity:1"
       x="13.236777"
       y="22.025084"
       id="text3576"
       transform="translate(68.818193,88.311624)"><tspan
         x="-62.458984"
         y="-65.648862"
         id="tspan5947"><tspan
           style="font-weight:bold;font-family:Inconsolata;-inkscape-font-specification:'Inconsolata Bold';baseline-shift:baseline;shape-inside:url(#rect17020);vector-effect:none;stop-color:#000000;stop-opacity:1"
           id="tspan5945">Serie D – Nov 2021 Sven Köppel</tspan></tspan></text>
  </g>
</svg>
